<mxfile host="app.diagrams.net" modified="2023-09-11T12:43:48.804Z" agent="Mozilla/5.0 (X11; Linux x86_64) AppleWebKit/537.36 (KHTML, like Gecko) Chrome/114.0.0.0 YaBrowser/23.7.1.1148 (beta) Yowser/2.5 Safari/537.36" etag="SjmsOVyjkRQhLsqqZO_x" version="21.3.7" type="device">
  <diagram id="C5RBs43oDa-KdzZeNtuy" name="Page-1">
    <mxGraphModel dx="4204" dy="1945" grid="1" gridSize="10" guides="1" tooltips="1" connect="1" arrows="1" fold="1" page="1" pageScale="1" pageWidth="827" pageHeight="1169" math="0" shadow="0">
      <root>
        <mxCell id="WIyWlLk6GJQsqaUBKTNV-0" />
        <mxCell id="WIyWlLk6GJQsqaUBKTNV-1" parent="WIyWlLk6GJQsqaUBKTNV-0" />
        <mxCell id="naVW3j90ZXJTF1a_utHk-0" value="IMetricsRegistry" style="swimlane;fontStyle=2;align=center;verticalAlign=top;childLayout=stackLayout;horizontal=1;startSize=26;horizontalStack=0;resizeParent=1;resizeLast=0;collapsible=1;marginBottom=0;rounded=0;shadow=0;strokeWidth=1;" vertex="1" parent="WIyWlLk6GJQsqaUBKTNV-1">
          <mxGeometry x="-527" y="180" width="660" height="80" as="geometry">
            <mxRectangle x="220" y="620" width="160" height="26" as="alternateBounds" />
          </mxGeometry>
        </mxCell>
        <mxCell id="naVW3j90ZXJTF1a_utHk-5" value="Register(labels: const TLabels&amp;,  metric: IMetricPtr, aggrType: EAggregationType, metrType: EMetricType) -&gt; TMetricKey" style="text;align=left;verticalAlign=top;spacingLeft=4;spacingRight=4;overflow=hidden;rotatable=0;points=[[0,0.5],[1,0.5]];portConstraint=eastwest;" vertex="1" parent="naVW3j90ZXJTF1a_utHk-0">
          <mxGeometry y="26" width="660" height="26" as="geometry" />
        </mxCell>
        <mxCell id="naVW3j90ZXJTF1a_utHk-7" value="Unregister(key: const TMetricKey&amp;)" style="text;align=left;verticalAlign=top;spacingLeft=4;spacingRight=4;overflow=hidden;rotatable=0;points=[[0,0.5],[1,0.5]];portConstraint=eastwest;" vertex="1" parent="naVW3j90ZXJTF1a_utHk-0">
          <mxGeometry y="52" width="660" height="26" as="geometry" />
        </mxCell>
        <mxCell id="naVW3j90ZXJTF1a_utHk-8" value="" style="endArrow=block;endSize=10;endFill=0;shadow=0;strokeWidth=1;rounded=0;edgeStyle=elbowEdgeStyle;elbow=vertical;" edge="1" parent="WIyWlLk6GJQsqaUBKTNV-1" source="naVW3j90ZXJTF1a_utHk-9" target="naVW3j90ZXJTF1a_utHk-0">
          <mxGeometry width="160" relative="1" as="geometry">
            <mxPoint x="-287" y="394" as="sourcePoint" />
            <mxPoint x="-253" y="425" as="targetPoint" />
          </mxGeometry>
        </mxCell>
        <mxCell id="naVW3j90ZXJTF1a_utHk-9" value="IMainMetricsRegistry" style="swimlane;fontStyle=2;align=center;verticalAlign=top;childLayout=stackLayout;horizontal=1;startSize=26;horizontalStack=0;resizeParent=1;resizeLast=0;collapsible=1;marginBottom=0;rounded=0;shadow=0;strokeWidth=1;" vertex="1" parent="WIyWlLk6GJQsqaUBKTNV-1">
          <mxGeometry x="-319.5" y="390" width="245" height="80" as="geometry">
            <mxRectangle x="220" y="620" width="160" height="26" as="alternateBounds" />
          </mxGeometry>
        </mxCell>
        <mxCell id="naVW3j90ZXJTF1a_utHk-10" value="Visit(time: TInstant, visitor: IRegistryVisitor&amp;)" style="text;align=left;verticalAlign=top;spacingLeft=4;spacingRight=4;overflow=hidden;rotatable=0;points=[[0,0.5],[1,0.5]];portConstraint=eastwest;" vertex="1" parent="naVW3j90ZXJTF1a_utHk-9">
          <mxGeometry y="26" width="245" height="26" as="geometry" />
        </mxCell>
        <mxCell id="naVW3j90ZXJTF1a_utHk-11" value="Update(time: TInstant)" style="text;align=left;verticalAlign=top;spacingLeft=4;spacingRight=4;overflow=hidden;rotatable=0;points=[[0,0.5],[1,0.5]];portConstraint=eastwest;" vertex="1" parent="naVW3j90ZXJTF1a_utHk-9">
          <mxGeometry y="52" width="245" height="26" as="geometry" />
        </mxCell>
        <mxCell id="naVW3j90ZXJTF1a_utHk-12" value="TAggregator" style="swimlane;fontStyle=0;align=center;verticalAlign=top;childLayout=stackLayout;horizontal=1;startSize=26;horizontalStack=0;resizeParent=1;resizeLast=0;collapsible=1;marginBottom=0;rounded=0;shadow=0;strokeWidth=1;" vertex="1" parent="WIyWlLk6GJQsqaUBKTNV-1">
          <mxGeometry x="917.4100000000001" y="620" width="460" height="270" as="geometry">
            <mxRectangle x="550" y="140" width="160" height="26" as="alternateBounds" />
          </mxGeometry>
        </mxCell>
        <mxCell id="naVW3j90ZXJTF1a_utHk-13" value="AggregationType: const EAggregationType" style="text;align=left;verticalAlign=top;spacingLeft=4;spacingRight=4;overflow=hidden;rotatable=0;points=[[0,0.5],[1,0.5]];portConstraint=eastwest;" vertex="1" parent="naVW3j90ZXJTF1a_utHk-12">
          <mxGeometry y="26" width="460" height="26" as="geometry" />
        </mxCell>
        <mxCell id="naVW3j90ZXJTF1a_utHk-14" value="MetricType: const EMetricType" style="text;align=left;verticalAlign=top;spacingLeft=4;spacingRight=4;overflow=hidden;rotatable=0;points=[[0,0.5],[1,0.5]];portConstraint=eastwest;rounded=0;shadow=0;html=0;" vertex="1" parent="naVW3j90ZXJTF1a_utHk-12">
          <mxGeometry y="52" width="460" height="26" as="geometry" />
        </mxCell>
        <mxCell id="naVW3j90ZXJTF1a_utHk-15" value="Base: i64" style="text;align=left;verticalAlign=top;spacingLeft=4;spacingRight=4;overflow=hidden;rotatable=0;points=[[0,0.5],[1,0.5]];portConstraint=eastwest;rounded=0;shadow=0;html=0;" vertex="1" parent="naVW3j90ZXJTF1a_utHk-12">
          <mxGeometry y="78" width="460" height="26" as="geometry" />
        </mxCell>
        <mxCell id="naVW3j90ZXJTF1a_utHk-18" value="" style="line;html=1;strokeWidth=1;align=left;verticalAlign=middle;spacingTop=-1;spacingLeft=3;spacingRight=3;rotatable=0;labelPosition=right;points=[];portConstraint=eastwest;" vertex="1" parent="naVW3j90ZXJTF1a_utHk-12">
          <mxGeometry y="104" width="460" height="8" as="geometry" />
        </mxCell>
        <mxCell id="naVW3j90ZXJTF1a_utHk-19" value="TAggregator(aggrType: EAggregationType, metrType: EMetricType)" style="text;align=left;verticalAlign=top;spacingLeft=4;spacingRight=4;overflow=hidden;rotatable=0;points=[[0,0.5],[1,0.5]];portConstraint=eastwest;" vertex="1" parent="naVW3j90ZXJTF1a_utHk-12">
          <mxGeometry y="112" width="460" height="26" as="geometry" />
        </mxCell>
        <mxCell id="naVW3j90ZXJTF1a_utHk-20" value="Register(metric: IMetricPtr) -&gt; TMetricKey" style="text;align=left;verticalAlign=top;spacingLeft=4;spacingRight=4;overflow=hidden;rotatable=0;points=[[0,0.5],[1,0.5]];portConstraint=eastwest;" vertex="1" parent="naVW3j90ZXJTF1a_utHk-12">
          <mxGeometry y="138" width="460" height="26" as="geometry" />
        </mxCell>
        <mxCell id="naVW3j90ZXJTF1a_utHk-24" value="Unregister(key: const TMetricKey&amp;) -&gt; bool" style="text;align=left;verticalAlign=top;spacingLeft=4;spacingRight=4;overflow=hidden;rotatable=0;points=[[0,0.5],[1,0.5]];portConstraint=eastwest;" vertex="1" parent="naVW3j90ZXJTF1a_utHk-12">
          <mxGeometry y="164" width="460" height="26" as="geometry" />
        </mxCell>
        <mxCell id="naVW3j90ZXJTF1a_utHk-23" value="Aggregate(time: TInstant) const -&gt; i64" style="text;align=left;verticalAlign=top;spacingLeft=4;spacingRight=4;overflow=hidden;rotatable=0;points=[[0,0.5],[1,0.5]];portConstraint=eastwest;" vertex="1" parent="naVW3j90ZXJTF1a_utHk-12">
          <mxGeometry y="190" width="460" height="26" as="geometry" />
        </mxCell>
        <mxCell id="naVW3j90ZXJTF1a_utHk-22" value="GetAggregationType() const -&gt; EAggregationType" style="text;align=left;verticalAlign=top;spacingLeft=4;spacingRight=4;overflow=hidden;rotatable=0;points=[[0,0.5],[1,0.5]];portConstraint=eastwest;" vertex="1" parent="naVW3j90ZXJTF1a_utHk-12">
          <mxGeometry y="216" width="460" height="26" as="geometry" />
        </mxCell>
        <mxCell id="naVW3j90ZXJTF1a_utHk-25" value="GetMetricType() const -&gt; EMetricType" style="text;align=left;verticalAlign=top;spacingLeft=4;spacingRight=4;overflow=hidden;rotatable=0;points=[[0,0.5],[1,0.5]];portConstraint=eastwest;" vertex="1" parent="naVW3j90ZXJTF1a_utHk-12">
          <mxGeometry y="242" width="460" height="26" as="geometry" />
        </mxCell>
        <mxCell id="naVW3j90ZXJTF1a_utHk-30" value="IMetric" style="swimlane;fontStyle=0;align=center;verticalAlign=top;childLayout=stackLayout;horizontal=1;startSize=26;horizontalStack=0;resizeParent=1;resizeLast=0;collapsible=1;marginBottom=0;rounded=0;shadow=0;strokeWidth=1;" vertex="1" parent="WIyWlLk6GJQsqaUBKTNV-1">
          <mxGeometry x="1092.41" y="940" width="110" height="52" as="geometry">
            <mxRectangle x="550" y="140" width="160" height="26" as="alternateBounds" />
          </mxGeometry>
        </mxCell>
        <mxCell id="naVW3j90ZXJTF1a_utHk-37" value="Get() const -&gt; i64" style="text;align=left;verticalAlign=top;spacingLeft=4;spacingRight=4;overflow=hidden;rotatable=0;points=[[0,0.5],[1,0.5]];portConstraint=eastwest;" vertex="1" parent="naVW3j90ZXJTF1a_utHk-30">
          <mxGeometry y="26" width="110" height="26" as="geometry" />
        </mxCell>
        <mxCell id="naVW3j90ZXJTF1a_utHk-45" value="TAtomicMetric" style="swimlane;fontStyle=0;align=center;verticalAlign=top;childLayout=stackLayout;horizontal=1;startSize=26;horizontalStack=0;resizeParent=1;resizeLast=0;collapsible=1;marginBottom=0;rounded=0;shadow=0;strokeWidth=1;" vertex="1" parent="WIyWlLk6GJQsqaUBKTNV-1">
          <mxGeometry x="702.4100000000001" y="1070" width="270" height="90" as="geometry">
            <mxRectangle x="550" y="140" width="160" height="26" as="alternateBounds" />
          </mxGeometry>
        </mxCell>
        <mxCell id="naVW3j90ZXJTF1a_utHk-46" value="Source: const std::atomic&lt;i64&gt;&amp;" style="text;align=left;verticalAlign=top;spacingLeft=4;spacingRight=4;overflow=hidden;rotatable=0;points=[[0,0.5],[1,0.5]];portConstraint=eastwest;" vertex="1" parent="naVW3j90ZXJTF1a_utHk-45">
          <mxGeometry y="26" width="270" height="26" as="geometry" />
        </mxCell>
        <mxCell id="naVW3j90ZXJTF1a_utHk-51" value="" style="line;html=1;strokeWidth=1;align=left;verticalAlign=middle;spacingTop=-1;spacingLeft=3;spacingRight=3;rotatable=0;labelPosition=right;points=[];portConstraint=eastwest;" vertex="1" parent="naVW3j90ZXJTF1a_utHk-45">
          <mxGeometry y="52" width="270" height="8" as="geometry" />
        </mxCell>
        <mxCell id="naVW3j90ZXJTF1a_utHk-52" value="TAtomicMetric(source: const std::atomic&lt;i64&gt;&amp;)" style="text;align=left;verticalAlign=top;spacingLeft=4;spacingRight=4;overflow=hidden;rotatable=0;points=[[0,0.5],[1,0.5]];portConstraint=eastwest;" vertex="1" parent="naVW3j90ZXJTF1a_utHk-45">
          <mxGeometry y="60" width="270" height="26" as="geometry" />
        </mxCell>
        <mxCell id="naVW3j90ZXJTF1a_utHk-58" value="TDeprecatedAtomicMetric" style="swimlane;fontStyle=0;align=center;verticalAlign=top;childLayout=stackLayout;horizontal=1;startSize=26;horizontalStack=0;resizeParent=1;resizeLast=0;collapsible=1;marginBottom=0;rounded=0;shadow=0;strokeWidth=1;" vertex="1" parent="WIyWlLk6GJQsqaUBKTNV-1">
          <mxGeometry x="1002.4100000000001" y="1070" width="290" height="90" as="geometry">
            <mxRectangle x="550" y="140" width="160" height="26" as="alternateBounds" />
          </mxGeometry>
        </mxCell>
        <mxCell id="naVW3j90ZXJTF1a_utHk-59" value="Source: const TAtomic&amp;" style="text;align=left;verticalAlign=top;spacingLeft=4;spacingRight=4;overflow=hidden;rotatable=0;points=[[0,0.5],[1,0.5]];portConstraint=eastwest;" vertex="1" parent="naVW3j90ZXJTF1a_utHk-58">
          <mxGeometry y="26" width="290" height="26" as="geometry" />
        </mxCell>
        <mxCell id="naVW3j90ZXJTF1a_utHk-60" value="" style="line;html=1;strokeWidth=1;align=left;verticalAlign=middle;spacingTop=-1;spacingLeft=3;spacingRight=3;rotatable=0;labelPosition=right;points=[];portConstraint=eastwest;" vertex="1" parent="naVW3j90ZXJTF1a_utHk-58">
          <mxGeometry y="52" width="290" height="8" as="geometry" />
        </mxCell>
        <mxCell id="naVW3j90ZXJTF1a_utHk-61" value="TDeprecatedAtomicMetric(source: const TAtomic&amp;)" style="text;align=left;verticalAlign=top;spacingLeft=4;spacingRight=4;overflow=hidden;rotatable=0;points=[[0,0.5],[1,0.5]];portConstraint=eastwest;" vertex="1" parent="naVW3j90ZXJTF1a_utHk-58">
          <mxGeometry y="60" width="290" height="26" as="geometry" />
        </mxCell>
        <mxCell id="naVW3j90ZXJTF1a_utHk-62" value="TLazyMetric" style="swimlane;fontStyle=0;align=center;verticalAlign=top;childLayout=stackLayout;horizontal=1;startSize=26;horizontalStack=0;resizeParent=1;resizeLast=0;collapsible=1;marginBottom=0;rounded=0;shadow=0;strokeWidth=1;" vertex="1" parent="WIyWlLk6GJQsqaUBKTNV-1">
          <mxGeometry x="1322.41" y="1070" width="240" height="90" as="geometry">
            <mxRectangle x="550" y="140" width="160" height="26" as="alternateBounds" />
          </mxGeometry>
        </mxCell>
        <mxCell id="naVW3j90ZXJTF1a_utHk-63" value="Source: std::function&lt;i64()&gt;" style="text;align=left;verticalAlign=top;spacingLeft=4;spacingRight=4;overflow=hidden;rotatable=0;points=[[0,0.5],[1,0.5]];portConstraint=eastwest;" vertex="1" parent="naVW3j90ZXJTF1a_utHk-62">
          <mxGeometry y="26" width="240" height="26" as="geometry" />
        </mxCell>
        <mxCell id="naVW3j90ZXJTF1a_utHk-64" value="" style="line;html=1;strokeWidth=1;align=left;verticalAlign=middle;spacingTop=-1;spacingLeft=3;spacingRight=3;rotatable=0;labelPosition=right;points=[];portConstraint=eastwest;" vertex="1" parent="naVW3j90ZXJTF1a_utHk-62">
          <mxGeometry y="52" width="240" height="8" as="geometry" />
        </mxCell>
        <mxCell id="naVW3j90ZXJTF1a_utHk-65" value="TLazyMetric(source: std::function&lt;i64()&gt;)" style="text;align=left;verticalAlign=top;spacingLeft=4;spacingRight=4;overflow=hidden;rotatable=0;points=[[0,0.5],[1,0.5]];portConstraint=eastwest;" vertex="1" parent="naVW3j90ZXJTF1a_utHk-62">
          <mxGeometry y="60" width="240" height="26" as="geometry" />
        </mxCell>
        <mxCell id="naVW3j90ZXJTF1a_utHk-67" value="" style="endArrow=block;endSize=10;endFill=0;shadow=0;strokeWidth=1;rounded=0;edgeStyle=elbowEdgeStyle;elbow=vertical;" edge="1" parent="WIyWlLk6GJQsqaUBKTNV-1" source="naVW3j90ZXJTF1a_utHk-45" target="naVW3j90ZXJTF1a_utHk-30">
          <mxGeometry width="160" relative="1" as="geometry">
            <mxPoint x="577.4100000000001" y="650" as="sourcePoint" />
            <mxPoint x="577.4100000000001" y="610" as="targetPoint" />
          </mxGeometry>
        </mxCell>
        <mxCell id="naVW3j90ZXJTF1a_utHk-68" value="" style="endArrow=block;endSize=10;endFill=0;shadow=0;strokeWidth=1;rounded=0;edgeStyle=elbowEdgeStyle;elbow=vertical;" edge="1" parent="WIyWlLk6GJQsqaUBKTNV-1" source="naVW3j90ZXJTF1a_utHk-58" target="naVW3j90ZXJTF1a_utHk-30">
          <mxGeometry width="160" relative="1" as="geometry">
            <mxPoint x="847.4100000000001" y="1080" as="sourcePoint" />
            <mxPoint x="1137.41" y="992" as="targetPoint" />
          </mxGeometry>
        </mxCell>
        <mxCell id="naVW3j90ZXJTF1a_utHk-69" value="" style="endArrow=block;endSize=10;endFill=0;shadow=0;strokeWidth=1;rounded=0;edgeStyle=elbowEdgeStyle;elbow=vertical;" edge="1" parent="WIyWlLk6GJQsqaUBKTNV-1" source="naVW3j90ZXJTF1a_utHk-62" target="naVW3j90ZXJTF1a_utHk-30">
          <mxGeometry width="160" relative="1" as="geometry">
            <mxPoint x="1157.41" y="1080" as="sourcePoint" />
            <mxPoint x="1137.41" y="992" as="targetPoint" />
          </mxGeometry>
        </mxCell>
        <mxCell id="naVW3j90ZXJTF1a_utHk-70" value="TLabel" style="swimlane;fontStyle=0;align=center;verticalAlign=top;childLayout=stackLayout;horizontal=1;startSize=26;horizontalStack=0;resizeParent=1;resizeLast=0;collapsible=1;marginBottom=0;rounded=0;shadow=0;strokeWidth=1;" vertex="1" parent="WIyWlLk6GJQsqaUBKTNV-1">
          <mxGeometry x="389.31999999999994" y="955" width="270" height="164" as="geometry">
            <mxRectangle x="550" y="140" width="160" height="26" as="alternateBounds" />
          </mxGeometry>
        </mxCell>
        <mxCell id="naVW3j90ZXJTF1a_utHk-74" value="Name: TString" style="text;align=left;verticalAlign=top;spacingLeft=4;spacingRight=4;overflow=hidden;rotatable=0;points=[[0,0.5],[1,0.5]];portConstraint=eastwest;" vertex="1" parent="naVW3j90ZXJTF1a_utHk-70">
          <mxGeometry y="26" width="270" height="26" as="geometry" />
        </mxCell>
        <mxCell id="naVW3j90ZXJTF1a_utHk-71" value="Value: TString" style="text;align=left;verticalAlign=top;spacingLeft=4;spacingRight=4;overflow=hidden;rotatable=0;points=[[0,0.5],[1,0.5]];portConstraint=eastwest;" vertex="1" parent="naVW3j90ZXJTF1a_utHk-70">
          <mxGeometry y="52" width="270" height="26" as="geometry" />
        </mxCell>
        <mxCell id="naVW3j90ZXJTF1a_utHk-72" value="" style="line;html=1;strokeWidth=1;align=left;verticalAlign=middle;spacingTop=-1;spacingLeft=3;spacingRight=3;rotatable=0;labelPosition=right;points=[];portConstraint=eastwest;" vertex="1" parent="naVW3j90ZXJTF1a_utHk-70">
          <mxGeometry y="78" width="270" height="8" as="geometry" />
        </mxCell>
        <mxCell id="naVW3j90ZXJTF1a_utHk-73" value="GetName() const -&gt; TString" style="text;align=left;verticalAlign=top;spacingLeft=4;spacingRight=4;overflow=hidden;rotatable=0;points=[[0,0.5],[1,0.5]];portConstraint=eastwest;" vertex="1" parent="naVW3j90ZXJTF1a_utHk-70">
          <mxGeometry y="86" width="270" height="26" as="geometry" />
        </mxCell>
        <mxCell id="naVW3j90ZXJTF1a_utHk-75" value="GetValue() const -&gt; TString" style="text;align=left;verticalAlign=top;spacingLeft=4;spacingRight=4;overflow=hidden;rotatable=0;points=[[0,0.5],[1,0.5]];portConstraint=eastwest;" vertex="1" parent="naVW3j90ZXJTF1a_utHk-70">
          <mxGeometry y="112" width="270" height="26" as="geometry" />
        </mxCell>
        <mxCell id="naVW3j90ZXJTF1a_utHk-76" value="GetHash() const -&gt; size_t" style="text;align=left;verticalAlign=top;spacingLeft=4;spacingRight=4;overflow=hidden;rotatable=0;points=[[0,0.5],[1,0.5]];portConstraint=eastwest;" vertex="1" parent="naVW3j90ZXJTF1a_utHk-70">
          <mxGeometry y="138" width="270" height="26" as="geometry" />
        </mxCell>
        <mxCell id="naVW3j90ZXJTF1a_utHk-77" value="TLabels" style="swimlane;fontStyle=0;align=center;verticalAlign=top;childLayout=stackLayout;horizontal=1;startSize=26;horizontalStack=0;resizeParent=1;resizeLast=0;collapsible=1;marginBottom=0;rounded=0;shadow=0;strokeWidth=1;" vertex="1" parent="WIyWlLk6GJQsqaUBKTNV-1">
          <mxGeometry x="389.31999999999994" y="849" width="270" height="52" as="geometry">
            <mxRectangle x="550" y="140" width="160" height="26" as="alternateBounds" />
          </mxGeometry>
        </mxCell>
        <mxCell id="naVW3j90ZXJTF1a_utHk-78" value="TVector&lt;TLabel&gt;" style="text;align=left;verticalAlign=top;spacingLeft=4;spacingRight=4;overflow=hidden;rotatable=0;points=[[0,0.5],[1,0.5]];portConstraint=eastwest;" vertex="1" parent="naVW3j90ZXJTF1a_utHk-77">
          <mxGeometry y="26" width="270" height="26" as="geometry" />
        </mxCell>
        <mxCell id="naVW3j90ZXJTF1a_utHk-84" value="" style="endArrow=open;shadow=0;strokeWidth=1;rounded=0;endFill=1;edgeStyle=elbowEdgeStyle;elbow=vertical;" edge="1" parent="WIyWlLk6GJQsqaUBKTNV-1" source="naVW3j90ZXJTF1a_utHk-70" target="naVW3j90ZXJTF1a_utHk-77">
          <mxGeometry x="0.5" y="41" relative="1" as="geometry">
            <mxPoint x="-100.67999999999995" y="1039" as="sourcePoint" />
            <mxPoint x="131.31999999999994" y="1039" as="targetPoint" />
            <mxPoint x="-40" y="32" as="offset" />
          </mxGeometry>
        </mxCell>
        <mxCell id="naVW3j90ZXJTF1a_utHk-85" value="*" style="resizable=0;align=left;verticalAlign=bottom;labelBackgroundColor=none;fontSize=12;" connectable="0" vertex="1" parent="naVW3j90ZXJTF1a_utHk-84">
          <mxGeometry x="-1" relative="1" as="geometry">
            <mxPoint y="4" as="offset" />
          </mxGeometry>
        </mxCell>
        <mxCell id="naVW3j90ZXJTF1a_utHk-86" value="1" style="resizable=0;align=right;verticalAlign=bottom;labelBackgroundColor=none;fontSize=12;" connectable="0" vertex="1" parent="naVW3j90ZXJTF1a_utHk-84">
          <mxGeometry x="1" relative="1" as="geometry">
            <mxPoint x="-5" y="28" as="offset" />
          </mxGeometry>
        </mxCell>
        <mxCell id="naVW3j90ZXJTF1a_utHk-89" value="" style="endArrow=open;shadow=0;strokeWidth=1;rounded=0;endFill=1;edgeStyle=elbowEdgeStyle;elbow=vertical;" edge="1" parent="WIyWlLk6GJQsqaUBKTNV-1" source="naVW3j90ZXJTF1a_utHk-30" target="naVW3j90ZXJTF1a_utHk-12">
          <mxGeometry x="0.5" y="41" relative="1" as="geometry">
            <mxPoint x="832.4100000000001" y="990" as="sourcePoint" />
            <mxPoint x="1064.41" y="990" as="targetPoint" />
            <mxPoint x="-40" y="32" as="offset" />
          </mxGeometry>
        </mxCell>
        <mxCell id="naVW3j90ZXJTF1a_utHk-90" value="*" style="resizable=0;align=left;verticalAlign=bottom;labelBackgroundColor=none;fontSize=12;" connectable="0" vertex="1" parent="naVW3j90ZXJTF1a_utHk-89">
          <mxGeometry x="-1" relative="1" as="geometry">
            <mxPoint x="5" as="offset" />
          </mxGeometry>
        </mxCell>
        <mxCell id="naVW3j90ZXJTF1a_utHk-91" value="1..*" style="resizable=0;align=right;verticalAlign=bottom;labelBackgroundColor=none;fontSize=12;" connectable="0" vertex="1" parent="naVW3j90ZXJTF1a_utHk-89">
          <mxGeometry x="1" relative="1" as="geometry">
            <mxPoint x="-7" y="20" as="offset" />
          </mxGeometry>
        </mxCell>
        <mxCell id="naVW3j90ZXJTF1a_utHk-93" value="TKey" style="swimlane;fontStyle=0;align=center;verticalAlign=top;childLayout=stackLayout;horizontal=1;startSize=26;horizontalStack=0;resizeParent=1;resizeLast=0;collapsible=1;marginBottom=0;rounded=0;shadow=0;strokeWidth=1;" vertex="1" parent="WIyWlLk6GJQsqaUBKTNV-1">
          <mxGeometry x="443" y="60" width="210" height="120" as="geometry">
            <mxRectangle x="550" y="140" width="160" height="26" as="alternateBounds" />
          </mxGeometry>
        </mxCell>
        <mxCell id="naVW3j90ZXJTF1a_utHk-94" value="UniqueId: std::uintptr_t" style="text;align=left;verticalAlign=top;spacingLeft=4;spacingRight=4;overflow=hidden;rotatable=0;points=[[0,0.5],[1,0.5]];portConstraint=eastwest;" vertex="1" parent="naVW3j90ZXJTF1a_utHk-93">
          <mxGeometry y="26" width="210" height="26" as="geometry" />
        </mxCell>
        <mxCell id="naVW3j90ZXJTF1a_utHk-95" value="Key: T" style="text;align=left;verticalAlign=top;spacingLeft=4;spacingRight=4;overflow=hidden;rotatable=0;points=[[0,0.5],[1,0.5]];portConstraint=eastwest;rounded=0;shadow=0;html=0;" vertex="1" parent="naVW3j90ZXJTF1a_utHk-93">
          <mxGeometry y="52" width="210" height="26" as="geometry" />
        </mxCell>
        <mxCell id="naVW3j90ZXJTF1a_utHk-99" value="" style="line;html=1;strokeWidth=1;align=left;verticalAlign=middle;spacingTop=-1;spacingLeft=3;spacingRight=3;rotatable=0;labelPosition=right;points=[];portConstraint=eastwest;" vertex="1" parent="naVW3j90ZXJTF1a_utHk-93">
          <mxGeometry y="78" width="210" height="8" as="geometry" />
        </mxCell>
        <mxCell id="naVW3j90ZXJTF1a_utHk-101" value="TKey(uniqueId: std::uintptr_t, key: T)" style="text;align=left;verticalAlign=top;spacingLeft=4;spacingRight=4;overflow=hidden;rotatable=0;points=[[0,0.5],[1,0.5]];portConstraint=eastwest;" vertex="1" parent="naVW3j90ZXJTF1a_utHk-93">
          <mxGeometry y="86" width="210" height="26" as="geometry" />
        </mxCell>
        <mxCell id="naVW3j90ZXJTF1a_utHk-119" value="TMainRegistry" style="swimlane;fontStyle=0;align=center;verticalAlign=top;childLayout=stackLayout;horizontal=1;startSize=26;horizontalStack=0;resizeParent=1;resizeLast=0;collapsible=1;marginBottom=0;rounded=0;shadow=0;strokeWidth=1;" vertex="1" parent="WIyWlLk6GJQsqaUBKTNV-1">
          <mxGeometry x="-412" y="560" width="430" height="112" as="geometry">
            <mxRectangle x="550" y="140" width="160" height="26" as="alternateBounds" />
          </mxGeometry>
        </mxCell>
        <mxCell id="naVW3j90ZXJTF1a_utHk-120" value="CommonLabels: const TLabels" style="text;align=left;verticalAlign=top;spacingLeft=4;spacingRight=4;overflow=hidden;rotatable=0;points=[[0,0.5],[1,0.5]];portConstraint=eastwest;" vertex="1" parent="naVW3j90ZXJTF1a_utHk-119">
          <mxGeometry y="26" width="430" height="26" as="geometry" />
        </mxCell>
        <mxCell id="naVW3j90ZXJTF1a_utHk-121" value="Root: const TDynamicCountersPtr" style="text;align=left;verticalAlign=top;spacingLeft=4;spacingRight=4;overflow=hidden;rotatable=0;points=[[0,0.5],[1,0.5]];portConstraint=eastwest;rounded=0;shadow=0;html=0;" vertex="1" parent="naVW3j90ZXJTF1a_utHk-119">
          <mxGeometry y="52" width="430" height="26" as="geometry" />
        </mxCell>
        <mxCell id="naVW3j90ZXJTF1a_utHk-125" value="" style="line;html=1;strokeWidth=1;align=left;verticalAlign=middle;spacingTop=-1;spacingLeft=3;spacingRight=3;rotatable=0;labelPosition=right;points=[];portConstraint=eastwest;" vertex="1" parent="naVW3j90ZXJTF1a_utHk-119">
          <mxGeometry y="78" width="430" height="8" as="geometry" />
        </mxCell>
        <mxCell id="naVW3j90ZXJTF1a_utHk-126" value="TMainRegistry(commonLabels: TLabels, commonLabels: TDynamicCounters)" style="text;align=left;verticalAlign=top;spacingLeft=4;spacingRight=4;overflow=hidden;rotatable=0;points=[[0,0.5],[1,0.5]];portConstraint=eastwest;" vertex="1" parent="naVW3j90ZXJTF1a_utHk-119">
          <mxGeometry y="86" width="430" height="26" as="geometry" />
        </mxCell>
        <mxCell id="naVW3j90ZXJTF1a_utHk-132" value="TAggregatorStorage" style="swimlane;fontStyle=0;align=center;verticalAlign=top;childLayout=stackLayout;horizontal=1;startSize=26;horizontalStack=0;resizeParent=1;resizeLast=0;collapsible=1;marginBottom=0;rounded=0;shadow=0;strokeWidth=1;" vertex="1" parent="WIyWlLk6GJQsqaUBKTNV-1">
          <mxGeometry x="172.40999999999997" y="620" width="695" height="170" as="geometry">
            <mxRectangle x="550" y="140" width="160" height="26" as="alternateBounds" />
          </mxGeometry>
        </mxCell>
        <mxCell id="naVW3j90ZXJTF1a_utHk-134" value="Subgroups: TStack&lt;TDynamicCountersPtr&gt;" style="text;align=left;verticalAlign=top;spacingLeft=4;spacingRight=4;overflow=hidden;rotatable=0;points=[[0,0.5],[1,0.5]];portConstraint=eastwest;rounded=0;shadow=0;html=0;" vertex="1" parent="naVW3j90ZXJTF1a_utHk-132">
          <mxGeometry y="26" width="695" height="26" as="geometry" />
        </mxCell>
        <mxCell id="naVW3j90ZXJTF1a_utHk-135" value="Counter: TCounterPtr" style="text;align=left;verticalAlign=top;spacingLeft=4;spacingRight=4;overflow=hidden;rotatable=0;points=[[0,0.5],[1,0.5]];portConstraint=eastwest;rounded=0;shadow=0;html=0;" vertex="1" parent="naVW3j90ZXJTF1a_utHk-132">
          <mxGeometry y="52" width="695" height="26" as="geometry" />
        </mxCell>
        <mxCell id="naVW3j90ZXJTF1a_utHk-137" value="Item: TList&lt;std::reference_wrapper&lt;TAggregator&gt;&gt;::iterator" style="text;align=left;verticalAlign=top;spacingLeft=4;spacingRight=4;overflow=hidden;rotatable=0;points=[[0,0.5],[1,0.5]];portConstraint=eastwest;rounded=0;shadow=0;html=0;" vertex="1" parent="naVW3j90ZXJTF1a_utHk-132">
          <mxGeometry y="78" width="695" height="26" as="geometry" />
        </mxCell>
        <mxCell id="naVW3j90ZXJTF1a_utHk-138" value="" style="line;html=1;strokeWidth=1;align=left;verticalAlign=middle;spacingTop=-1;spacingLeft=3;spacingRight=3;rotatable=0;labelPosition=right;points=[];portConstraint=eastwest;" vertex="1" parent="naVW3j90ZXJTF1a_utHk-132">
          <mxGeometry y="104" width="695" height="8" as="geometry" />
        </mxCell>
        <mxCell id="naVW3j90ZXJTF1a_utHk-139" value="TAggregatorStorage(root: TDynamicCountersPtr, labels: const TLabels&amp;, aggrType: EAggregationType, metrType: EMetricType)" style="text;align=left;verticalAlign=top;spacingLeft=4;spacingRight=4;overflow=hidden;rotatable=0;points=[[0,0.5],[1,0.5]];portConstraint=eastwest;" vertex="1" parent="naVW3j90ZXJTF1a_utHk-132">
          <mxGeometry y="112" width="695" height="26" as="geometry" />
        </mxCell>
        <mxCell id="naVW3j90ZXJTF1a_utHk-140" value="~TAggregatorStorage()" style="text;align=left;verticalAlign=top;spacingLeft=4;spacingRight=4;overflow=hidden;rotatable=0;points=[[0,0.5],[1,0.5]];portConstraint=eastwest;" vertex="1" parent="naVW3j90ZXJTF1a_utHk-132">
          <mxGeometry y="138" width="695" height="26" as="geometry" />
        </mxCell>
        <mxCell id="naVW3j90ZXJTF1a_utHk-145" value="" style="endArrow=open;shadow=0;strokeWidth=1;rounded=0;endFill=1;edgeStyle=elbowEdgeStyle;elbow=vertical;" edge="1" parent="WIyWlLk6GJQsqaUBKTNV-1" source="naVW3j90ZXJTF1a_utHk-132" target="naVW3j90ZXJTF1a_utHk-12">
          <mxGeometry x="0.5" y="41" relative="1" as="geometry">
            <mxPoint x="997.4100000000001" y="1050" as="sourcePoint" />
            <mxPoint x="1232.41" y="930" as="targetPoint" />
            <mxPoint x="-40" y="32" as="offset" />
          </mxGeometry>
        </mxCell>
        <mxCell id="naVW3j90ZXJTF1a_utHk-146" value="1" style="resizable=0;align=left;verticalAlign=bottom;labelBackgroundColor=none;fontSize=12;" connectable="0" vertex="1" parent="naVW3j90ZXJTF1a_utHk-145">
          <mxGeometry x="-1" relative="1" as="geometry">
            <mxPoint x="5" as="offset" />
          </mxGeometry>
        </mxCell>
        <mxCell id="naVW3j90ZXJTF1a_utHk-147" value="1" style="resizable=0;align=right;verticalAlign=bottom;labelBackgroundColor=none;fontSize=12;" connectable="0" vertex="1" parent="naVW3j90ZXJTF1a_utHk-145">
          <mxGeometry x="1" relative="1" as="geometry">
            <mxPoint y="-5" as="offset" />
          </mxGeometry>
        </mxCell>
        <mxCell id="naVW3j90ZXJTF1a_utHk-149" value="" style="endArrow=open;shadow=0;strokeWidth=1;rounded=0;endFill=1;edgeStyle=elbowEdgeStyle;elbow=vertical;" edge="1" parent="WIyWlLk6GJQsqaUBKTNV-1" source="naVW3j90ZXJTF1a_utHk-132" target="naVW3j90ZXJTF1a_utHk-77">
          <mxGeometry x="0.5" y="41" relative="1" as="geometry">
            <mxPoint x="652.4100000000001" y="870" as="sourcePoint" />
            <mxPoint x="652.4100000000001" y="880" as="targetPoint" />
            <mxPoint x="-40" y="32" as="offset" />
          </mxGeometry>
        </mxCell>
        <mxCell id="naVW3j90ZXJTF1a_utHk-150" value="1" style="resizable=0;align=left;verticalAlign=bottom;labelBackgroundColor=none;fontSize=12;" connectable="0" vertex="1" parent="naVW3j90ZXJTF1a_utHk-149">
          <mxGeometry x="-1" relative="1" as="geometry">
            <mxPoint x="5" y="20" as="offset" />
          </mxGeometry>
        </mxCell>
        <mxCell id="naVW3j90ZXJTF1a_utHk-151" value="1" style="resizable=0;align=right;verticalAlign=bottom;labelBackgroundColor=none;fontSize=12;" connectable="0" vertex="1" parent="naVW3j90ZXJTF1a_utHk-149">
          <mxGeometry x="1" relative="1" as="geometry">
            <mxPoint x="15" y="-10" as="offset" />
          </mxGeometry>
        </mxCell>
        <mxCell id="naVW3j90ZXJTF1a_utHk-155" value="" style="endArrow=block;endSize=10;endFill=0;shadow=0;strokeWidth=1;rounded=0;edgeStyle=elbowEdgeStyle;elbow=vertical;" edge="1" parent="WIyWlLk6GJQsqaUBKTNV-1" source="naVW3j90ZXJTF1a_utHk-119" target="naVW3j90ZXJTF1a_utHk-9">
          <mxGeometry width="160" relative="1" as="geometry">
            <mxPoint x="-477" y="660" as="sourcePoint" />
            <mxPoint x="-477" y="530" as="targetPoint" />
          </mxGeometry>
        </mxCell>
        <mxCell id="naVW3j90ZXJTF1a_utHk-156" value="" style="endArrow=open;shadow=0;strokeWidth=1;rounded=0;endFill=1;edgeStyle=elbowEdgeStyle;elbow=vertical;" edge="1" parent="WIyWlLk6GJQsqaUBKTNV-1" source="naVW3j90ZXJTF1a_utHk-119" target="naVW3j90ZXJTF1a_utHk-132">
          <mxGeometry x="0.5" y="41" relative="1" as="geometry">
            <mxPoint x="813" y="455" as="sourcePoint" />
            <mxPoint x="132.40999999999985" y="646" as="targetPoint" />
            <mxPoint x="-40" y="32" as="offset" />
          </mxGeometry>
        </mxCell>
        <mxCell id="naVW3j90ZXJTF1a_utHk-157" value="1" style="resizable=0;align=left;verticalAlign=bottom;labelBackgroundColor=none;fontSize=12;" connectable="0" vertex="1" parent="naVW3j90ZXJTF1a_utHk-156">
          <mxGeometry x="-1" relative="1" as="geometry">
            <mxPoint x="5" as="offset" />
          </mxGeometry>
        </mxCell>
        <mxCell id="naVW3j90ZXJTF1a_utHk-158" value="*" style="resizable=0;align=right;verticalAlign=bottom;labelBackgroundColor=none;fontSize=12;" connectable="0" vertex="1" parent="naVW3j90ZXJTF1a_utHk-156">
          <mxGeometry x="1" relative="1" as="geometry">
            <mxPoint x="-10" y="-5" as="offset" />
          </mxGeometry>
        </mxCell>
        <mxCell id="naVW3j90ZXJTF1a_utHk-159" value="TScopedRegistry" style="swimlane;fontStyle=0;align=center;verticalAlign=top;childLayout=stackLayout;horizontal=1;startSize=26;horizontalStack=0;resizeParent=1;resizeLast=0;collapsible=1;marginBottom=0;rounded=0;shadow=0;strokeWidth=1;" vertex="1" parent="WIyWlLk6GJQsqaUBKTNV-1">
          <mxGeometry x="-817" y="390" width="470" height="112" as="geometry">
            <mxRectangle x="550" y="140" width="160" height="26" as="alternateBounds" />
          </mxGeometry>
        </mxCell>
        <mxCell id="naVW3j90ZXJTF1a_utHk-160" value="CommonLabels: const TLabels" style="text;align=left;verticalAlign=top;spacingLeft=4;spacingRight=4;overflow=hidden;rotatable=0;points=[[0,0.5],[1,0.5]];portConstraint=eastwest;" vertex="1" parent="naVW3j90ZXJTF1a_utHk-159">
          <mxGeometry y="26" width="470" height="26" as="geometry" />
        </mxCell>
        <mxCell id="naVW3j90ZXJTF1a_utHk-161" value="SubRegistries: THashMap&lt;TMetricKey, TVector&lt;TMetricKey&gt;&gt;" style="text;align=left;verticalAlign=top;spacingLeft=4;spacingRight=4;overflow=hidden;rotatable=0;points=[[0,0.5],[1,0.5]];portConstraint=eastwest;rounded=0;shadow=0;html=0;" vertex="1" parent="naVW3j90ZXJTF1a_utHk-159">
          <mxGeometry y="52" width="470" height="26" as="geometry" />
        </mxCell>
        <mxCell id="naVW3j90ZXJTF1a_utHk-162" value="" style="line;html=1;strokeWidth=1;align=left;verticalAlign=middle;spacingTop=-1;spacingLeft=3;spacingRight=3;rotatable=0;labelPosition=right;points=[];portConstraint=eastwest;" vertex="1" parent="naVW3j90ZXJTF1a_utHk-159">
          <mxGeometry y="78" width="470" height="8" as="geometry" />
        </mxCell>
        <mxCell id="naVW3j90ZXJTF1a_utHk-163" value="TScopedRegistry(commonLabels: TLabels, subRegistries: TVector&lt;IMetricsRegistry&gt;)" style="text;align=left;verticalAlign=top;spacingLeft=4;spacingRight=4;overflow=hidden;rotatable=0;points=[[0,0.5],[1,0.5]];portConstraint=eastwest;" vertex="1" parent="naVW3j90ZXJTF1a_utHk-159">
          <mxGeometry y="86" width="470" height="26" as="geometry" />
        </mxCell>
        <mxCell id="naVW3j90ZXJTF1a_utHk-164" value="" style="endArrow=open;shadow=0;strokeWidth=1;rounded=0;endFill=1;edgeStyle=elbowEdgeStyle;elbow=vertical;entryX=0.5;entryY=0;entryDx=0;entryDy=0;exitX=0.5;exitY=0;exitDx=0;exitDy=0;" edge="1" parent="WIyWlLk6GJQsqaUBKTNV-1" source="naVW3j90ZXJTF1a_utHk-159" target="naVW3j90ZXJTF1a_utHk-0">
          <mxGeometry x="0.5" y="41" relative="1" as="geometry">
            <mxPoint x="23" y="626" as="sourcePoint" />
            <mxPoint x="-797" y="230" as="targetPoint" />
            <mxPoint x="-40" y="32" as="offset" />
            <Array as="points">
              <mxPoint x="-387" y="80" />
            </Array>
          </mxGeometry>
        </mxCell>
        <mxCell id="naVW3j90ZXJTF1a_utHk-165" value="*" style="resizable=0;align=left;verticalAlign=bottom;labelBackgroundColor=none;fontSize=12;" connectable="0" vertex="1" parent="naVW3j90ZXJTF1a_utHk-164">
          <mxGeometry x="-1" relative="1" as="geometry">
            <mxPoint x="5" as="offset" />
          </mxGeometry>
        </mxCell>
        <mxCell id="naVW3j90ZXJTF1a_utHk-166" value="1..*" style="resizable=0;align=right;verticalAlign=bottom;labelBackgroundColor=none;fontSize=12;" connectable="0" vertex="1" parent="naVW3j90ZXJTF1a_utHk-164">
          <mxGeometry x="1" relative="1" as="geometry">
            <mxPoint x="-1" y="-10" as="offset" />
          </mxGeometry>
        </mxCell>
        <mxCell id="naVW3j90ZXJTF1a_utHk-167" value="" style="endArrow=block;endSize=10;endFill=0;shadow=0;strokeWidth=1;rounded=0;edgeStyle=elbowEdgeStyle;elbow=vertical;" edge="1" parent="WIyWlLk6GJQsqaUBKTNV-1" source="naVW3j90ZXJTF1a_utHk-159" target="naVW3j90ZXJTF1a_utHk-0">
          <mxGeometry width="160" relative="1" as="geometry">
            <mxPoint x="-192" y="400" as="sourcePoint" />
            <mxPoint x="-192" y="270" as="targetPoint" />
          </mxGeometry>
        </mxCell>
        <mxCell id="naVW3j90ZXJTF1a_utHk-168" value="THistogram" style="swimlane;fontStyle=0;align=center;verticalAlign=top;childLayout=stackLayout;horizontal=1;startSize=26;horizontalStack=0;resizeParent=1;resizeLast=0;collapsible=1;marginBottom=0;rounded=0;shadow=0;strokeWidth=1;" vertex="1" parent="WIyWlLk6GJQsqaUBKTNV-1">
          <mxGeometry x="973" y="61" width="520" height="140" as="geometry">
            <mxRectangle x="550" y="140" width="160" height="26" as="alternateBounds" />
          </mxGeometry>
        </mxCell>
        <mxCell id="naVW3j90ZXJTF1a_utHk-169" value="Hist: std::array&lt;std::atomic&lt;i64&gt;&gt;" style="text;align=left;verticalAlign=top;spacingLeft=4;spacingRight=4;overflow=hidden;rotatable=0;points=[[0,0.5],[1,0.5]];portConstraint=eastwest;rounded=0;shadow=0;html=0;" vertex="1" parent="naVW3j90ZXJTF1a_utHk-168">
          <mxGeometry y="26" width="520" height="26" as="geometry" />
        </mxCell>
        <mxCell id="naVW3j90ZXJTF1a_utHk-172" value="" style="line;html=1;strokeWidth=1;align=left;verticalAlign=middle;spacingTop=-1;spacingLeft=3;spacingRight=3;rotatable=0;labelPosition=right;points=[];portConstraint=eastwest;" vertex="1" parent="naVW3j90ZXJTF1a_utHk-168">
          <mxGeometry y="52" width="520" height="8" as="geometry" />
        </mxCell>
        <mxCell id="naVW3j90ZXJTF1a_utHk-173" value="Record(value: T, count: ui32)" style="text;align=left;verticalAlign=top;spacingLeft=4;spacingRight=4;overflow=hidden;rotatable=0;points=[[0,0.5],[1,0.5]];portConstraint=eastwest;" vertex="1" parent="naVW3j90ZXJTF1a_utHk-168">
          <mxGeometry y="60" width="520" height="26" as="geometry" />
        </mxCell>
        <mxCell id="naVW3j90ZXJTF1a_utHk-174" value="Register(registry: IMetricsRegistry, labels: TLabels, aggrType: EAggregationType) -&gt; TMetricKey" style="text;align=left;verticalAlign=top;spacingLeft=4;spacingRight=4;overflow=hidden;rotatable=0;points=[[0,0.5],[1,0.5]];portConstraint=eastwest;" vertex="1" parent="naVW3j90ZXJTF1a_utHk-168">
          <mxGeometry y="86" width="520" height="26" as="geometry" />
        </mxCell>
        <mxCell id="naVW3j90ZXJTF1a_utHk-175" value="Unregister(key: TMetricKey);" style="text;align=left;verticalAlign=top;spacingLeft=4;spacingRight=4;overflow=hidden;rotatable=0;points=[[0,0.5],[1,0.5]];portConstraint=eastwest;" vertex="1" parent="naVW3j90ZXJTF1a_utHk-168">
          <mxGeometry y="112" width="520" height="26" as="geometry" />
        </mxCell>
        <mxCell id="naVW3j90ZXJTF1a_utHk-179" value="" style="endArrow=open;shadow=0;strokeWidth=1;rounded=0;endFill=1;edgeStyle=elbowEdgeStyle;elbow=vertical;" edge="1" parent="WIyWlLk6GJQsqaUBKTNV-1" source="naVW3j90ZXJTF1a_utHk-168" target="naVW3j90ZXJTF1a_utHk-0">
          <mxGeometry x="0.5" y="41" relative="1" as="geometry">
            <mxPoint x="528" y="740" as="sourcePoint" />
            <mxPoint x="528" y="800" as="targetPoint" />
            <mxPoint x="-40" y="32" as="offset" />
          </mxGeometry>
        </mxCell>
        <mxCell id="naVW3j90ZXJTF1a_utHk-180" value="*" style="resizable=0;align=left;verticalAlign=bottom;labelBackgroundColor=none;fontSize=12;" connectable="0" vertex="1" parent="naVW3j90ZXJTF1a_utHk-179">
          <mxGeometry x="-1" relative="1" as="geometry">
            <mxPoint x="-20" y="-10" as="offset" />
          </mxGeometry>
        </mxCell>
        <mxCell id="naVW3j90ZXJTF1a_utHk-181" value="*" style="resizable=0;align=right;verticalAlign=bottom;labelBackgroundColor=none;fontSize=12;" connectable="0" vertex="1" parent="naVW3j90ZXJTF1a_utHk-179">
          <mxGeometry x="1" relative="1" as="geometry">
            <mxPoint x="15" y="-10" as="offset" />
          </mxGeometry>
        </mxCell>
        <mxCell id="naVW3j90ZXJTF1a_utHk-182" value="TWindowCalculator" style="swimlane;fontStyle=0;align=center;verticalAlign=top;childLayout=stackLayout;horizontal=1;startSize=26;horizontalStack=0;resizeParent=1;resizeLast=0;collapsible=1;marginBottom=0;rounded=0;shadow=0;strokeWidth=1;" vertex="1" parent="WIyWlLk6GJQsqaUBKTNV-1">
          <mxGeometry x="973" y="241" width="520" height="164" as="geometry">
            <mxRectangle x="550" y="140" width="160" height="26" as="alternateBounds" />
          </mxGeometry>
        </mxCell>
        <mxCell id="naVW3j90ZXJTF1a_utHk-188" value="Buckets: std::array&lt;std::atomic&lt;i64&gt;&gt;" style="text;align=left;verticalAlign=top;spacingLeft=4;spacingRight=4;overflow=hidden;rotatable=0;points=[[0,0.5],[1,0.5]];portConstraint=eastwest;rounded=0;shadow=0;html=0;" vertex="1" parent="naVW3j90ZXJTF1a_utHk-182">
          <mxGeometry y="26" width="520" height="26" as="geometry" />
        </mxCell>
        <mxCell id="naVW3j90ZXJTF1a_utHk-183" value="CurrentBucket: std::atomic&lt;ui64&gt;" style="text;align=left;verticalAlign=top;spacingLeft=4;spacingRight=4;overflow=hidden;rotatable=0;points=[[0,0.5],[1,0.5]];portConstraint=eastwest;rounded=0;shadow=0;html=0;" vertex="1" parent="naVW3j90ZXJTF1a_utHk-182">
          <mxGeometry y="52" width="520" height="26" as="geometry" />
        </mxCell>
        <mxCell id="naVW3j90ZXJTF1a_utHk-184" value="" style="line;html=1;strokeWidth=1;align=left;verticalAlign=middle;spacingTop=-1;spacingLeft=3;spacingRight=3;rotatable=0;labelPosition=right;points=[];portConstraint=eastwest;" vertex="1" parent="naVW3j90ZXJTF1a_utHk-182">
          <mxGeometry y="78" width="520" height="8" as="geometry" />
        </mxCell>
        <mxCell id="naVW3j90ZXJTF1a_utHk-185" value="Record(value: i64)" style="text;align=left;verticalAlign=top;spacingLeft=4;spacingRight=4;overflow=hidden;rotatable=0;points=[[0,0.5],[1,0.5]];portConstraint=eastwest;" vertex="1" parent="naVW3j90ZXJTF1a_utHk-182">
          <mxGeometry y="86" width="520" height="26" as="geometry" />
        </mxCell>
        <mxCell id="naVW3j90ZXJTF1a_utHk-186" value="Register(registry: IMetricsRegistry, labels: TLabels, aggrType: EAggregationType) -&gt; TMetricKey" style="text;align=left;verticalAlign=top;spacingLeft=4;spacingRight=4;overflow=hidden;rotatable=0;points=[[0,0.5],[1,0.5]];portConstraint=eastwest;" vertex="1" parent="naVW3j90ZXJTF1a_utHk-182">
          <mxGeometry y="112" width="520" height="26" as="geometry" />
        </mxCell>
        <mxCell id="naVW3j90ZXJTF1a_utHk-187" value="Unregister(key: TMetricKey);" style="text;align=left;verticalAlign=top;spacingLeft=4;spacingRight=4;overflow=hidden;rotatable=0;points=[[0,0.5],[1,0.5]];portConstraint=eastwest;" vertex="1" parent="naVW3j90ZXJTF1a_utHk-182">
          <mxGeometry y="138" width="520" height="26" as="geometry" />
        </mxCell>
        <mxCell id="naVW3j90ZXJTF1a_utHk-189" value="" style="endArrow=open;shadow=0;strokeWidth=1;rounded=0;endFill=1;edgeStyle=elbowEdgeStyle;elbow=vertical;" edge="1" parent="WIyWlLk6GJQsqaUBKTNV-1" source="naVW3j90ZXJTF1a_utHk-182" target="naVW3j90ZXJTF1a_utHk-0">
          <mxGeometry x="0.5" y="41" relative="1" as="geometry">
            <mxPoint x="493" y="120" as="sourcePoint" />
            <mxPoint x="173" y="230" as="targetPoint" />
            <mxPoint x="-40" y="32" as="offset" />
          </mxGeometry>
        </mxCell>
        <mxCell id="naVW3j90ZXJTF1a_utHk-190" value="*" style="resizable=0;align=left;verticalAlign=bottom;labelBackgroundColor=none;fontSize=12;" connectable="0" vertex="1" parent="naVW3j90ZXJTF1a_utHk-189">
          <mxGeometry x="-1" relative="1" as="geometry">
            <mxPoint x="-20" as="offset" />
          </mxGeometry>
        </mxCell>
        <mxCell id="naVW3j90ZXJTF1a_utHk-191" value="*" style="resizable=0;align=right;verticalAlign=bottom;labelBackgroundColor=none;fontSize=12;" connectable="0" vertex="1" parent="naVW3j90ZXJTF1a_utHk-189">
          <mxGeometry x="1" relative="1" as="geometry">
            <mxPoint x="15" as="offset" />
          </mxGeometry>
        </mxCell>
        <mxCell id="naVW3j90ZXJTF1a_utHk-192" value="IMetrilcsService" style="swimlane;fontStyle=2;align=center;verticalAlign=top;childLayout=stackLayout;horizontal=1;startSize=26;horizontalStack=0;resizeParent=1;resizeLast=0;collapsible=1;marginBottom=0;rounded=0;shadow=0;strokeWidth=1;" vertex="1" parent="WIyWlLk6GJQsqaUBKTNV-1">
          <mxGeometry x="223" y="270" width="660" height="80" as="geometry">
            <mxRectangle x="220" y="620" width="160" height="26" as="alternateBounds" />
          </mxGeometry>
        </mxCell>
        <mxCell id="naVW3j90ZXJTF1a_utHk-193" value="SetupCounter(root: TDynamicCounterPtr)" style="text;align=left;verticalAlign=top;spacingLeft=4;spacingRight=4;overflow=hidden;rotatable=0;points=[[0,0.5],[1,0.5]];portConstraint=eastwest;" vertex="1" parent="naVW3j90ZXJTF1a_utHk-192">
          <mxGeometry y="26" width="660" height="26" as="geometry" />
        </mxCell>
        <mxCell id="naVW3j90ZXJTF1a_utHk-194" value="GetRegistry() const -&gt; IMetricsRegistry" style="text;align=left;verticalAlign=top;spacingLeft=4;spacingRight=4;overflow=hidden;rotatable=0;points=[[0,0.5],[1,0.5]];portConstraint=eastwest;" vertex="1" parent="naVW3j90ZXJTF1a_utHk-192">
          <mxGeometry y="52" width="660" height="26" as="geometry" />
        </mxCell>
        <mxCell id="naVW3j90ZXJTF1a_utHk-195" value="TMetricsService" style="swimlane;fontStyle=0;align=center;verticalAlign=top;childLayout=stackLayout;horizontal=1;startSize=26;horizontalStack=0;resizeParent=1;resizeLast=0;collapsible=1;marginBottom=0;rounded=0;shadow=0;strokeWidth=1;" vertex="1" parent="WIyWlLk6GJQsqaUBKTNV-1">
          <mxGeometry x="288" y="418" width="530" height="142" as="geometry">
            <mxRectangle x="550" y="140" width="160" height="26" as="alternateBounds" />
          </mxGeometry>
        </mxCell>
        <mxCell id="naVW3j90ZXJTF1a_utHk-203" value="Config: const TMetricsServiceConfig" style="text;align=left;verticalAlign=top;spacingLeft=4;spacingRight=4;overflow=hidden;rotatable=0;points=[[0,0.5],[1,0.5]];portConstraint=eastwest;" vertex="1" parent="naVW3j90ZXJTF1a_utHk-195">
          <mxGeometry y="26" width="530" height="26" as="geometry" />
        </mxCell>
        <mxCell id="naVW3j90ZXJTF1a_utHk-202" value="Timer: const ITimerPtr" style="text;align=left;verticalAlign=top;spacingLeft=4;spacingRight=4;overflow=hidden;rotatable=0;points=[[0,0.5],[1,0.5]];portConstraint=eastwest;" vertex="1" parent="naVW3j90ZXJTF1a_utHk-195">
          <mxGeometry y="52" width="530" height="26" as="geometry" />
        </mxCell>
        <mxCell id="naVW3j90ZXJTF1a_utHk-201" value="Scheduler: const ISchedulerPtr" style="text;align=left;verticalAlign=top;spacingLeft=4;spacingRight=4;overflow=hidden;rotatable=0;points=[[0,0.5],[1,0.5]];portConstraint=eastwest;" vertex="1" parent="naVW3j90ZXJTF1a_utHk-195">
          <mxGeometry y="78" width="530" height="26" as="geometry" />
        </mxCell>
        <mxCell id="naVW3j90ZXJTF1a_utHk-198" value="" style="line;html=1;strokeWidth=1;align=left;verticalAlign=middle;spacingTop=-1;spacingLeft=3;spacingRight=3;rotatable=0;labelPosition=right;points=[];portConstraint=eastwest;" vertex="1" parent="naVW3j90ZXJTF1a_utHk-195">
          <mxGeometry y="104" width="530" height="8" as="geometry" />
        </mxCell>
        <mxCell id="naVW3j90ZXJTF1a_utHk-199" value="TMetricsService(config: const TMetricsServiceConfig&amp;, timer: ITmerPtr, scheduler: ISchedulerPtr)" style="text;align=left;verticalAlign=top;spacingLeft=4;spacingRight=4;overflow=hidden;rotatable=0;points=[[0,0.5],[1,0.5]];portConstraint=eastwest;" vertex="1" parent="naVW3j90ZXJTF1a_utHk-195">
          <mxGeometry y="112" width="530" height="26" as="geometry" />
        </mxCell>
        <mxCell id="naVW3j90ZXJTF1a_utHk-204" value="" style="endArrow=block;endSize=10;endFill=0;shadow=0;strokeWidth=1;rounded=0;edgeStyle=elbowEdgeStyle;elbow=vertical;" edge="1" parent="WIyWlLk6GJQsqaUBKTNV-1" source="naVW3j90ZXJTF1a_utHk-195" target="naVW3j90ZXJTF1a_utHk-192">
          <mxGeometry width="160" relative="1" as="geometry">
            <mxPoint x="618" y="40" as="sourcePoint" />
            <mxPoint x="618" y="-50" as="targetPoint" />
          </mxGeometry>
        </mxCell>
        <mxCell id="naVW3j90ZXJTF1a_utHk-205" value="" style="endArrow=open;shadow=0;strokeWidth=1;rounded=0;endFill=1;edgeStyle=elbowEdgeStyle;elbow=vertical;" edge="1" parent="WIyWlLk6GJQsqaUBKTNV-1" source="naVW3j90ZXJTF1a_utHk-195" target="naVW3j90ZXJTF1a_utHk-9">
          <mxGeometry x="0.5" y="41" relative="1" as="geometry">
            <mxPoint x="493" y="250" as="sourcePoint" />
            <mxPoint x="183" y="250" as="targetPoint" />
            <mxPoint x="-40" y="32" as="offset" />
          </mxGeometry>
        </mxCell>
        <mxCell id="naVW3j90ZXJTF1a_utHk-206" value="1" style="resizable=0;align=left;verticalAlign=bottom;labelBackgroundColor=none;fontSize=12;" connectable="0" vertex="1" parent="naVW3j90ZXJTF1a_utHk-205">
          <mxGeometry x="-1" relative="1" as="geometry">
            <mxPoint x="-20" as="offset" />
          </mxGeometry>
        </mxCell>
        <mxCell id="naVW3j90ZXJTF1a_utHk-207" value="1" style="resizable=0;align=right;verticalAlign=bottom;labelBackgroundColor=none;fontSize=12;" connectable="0" vertex="1" parent="naVW3j90ZXJTF1a_utHk-205">
          <mxGeometry x="1" relative="1" as="geometry">
            <mxPoint x="15" as="offset" />
          </mxGeometry>
        </mxCell>
        <mxCell id="naVW3j90ZXJTF1a_utHk-209" value="Histogram" style="rounded=0;whiteSpace=wrap;html=1;fillColor=#1ba1e2;fontColor=#ffffff;strokeColor=#006EAF;opacity=40;align=right;verticalAlign=top;fontSize=20;" vertex="1" parent="WIyWlLk6GJQsqaUBKTNV-1">
          <mxGeometry x="953" y="10" width="630" height="210" as="geometry" />
        </mxCell>
        <mxCell id="naVW3j90ZXJTF1a_utHk-210" value="WindowCalculator" style="rounded=0;whiteSpace=wrap;html=1;fillColor=#6a00ff;fontColor=#ffffff;strokeColor=#3700CC;opacity=40;align=right;verticalAlign=bottom;fontSize=20;" vertex="1" parent="WIyWlLk6GJQsqaUBKTNV-1">
          <mxGeometry x="953" y="231" width="630" height="219" as="geometry" />
        </mxCell>
        <mxCell id="naVW3j90ZXJTF1a_utHk-211" value="Metric" style="rounded=0;whiteSpace=wrap;html=1;fillColor=#60a917;fontColor=#ffffff;strokeColor=#2D7600;opacity=40;align=right;verticalAlign=top;fontSize=20;" vertex="1" parent="WIyWlLk6GJQsqaUBKTNV-1">
          <mxGeometry x="692.4100000000001" y="930" width="880.59" height="239" as="geometry" />
        </mxCell>
        <mxCell id="naVW3j90ZXJTF1a_utHk-212" value="Label" style="rounded=0;whiteSpace=wrap;html=1;fillColor=#f0a30a;fontColor=#000000;strokeColor=#BD7000;opacity=40;align=left;verticalAlign=bottom;fontSize=20;" vertex="1" parent="WIyWlLk6GJQsqaUBKTNV-1">
          <mxGeometry x="359.90999999999997" y="830" width="320" height="339" as="geometry" />
        </mxCell>
        <mxCell id="naVW3j90ZXJTF1a_utHk-213" value="Aggregator" style="rounded=0;whiteSpace=wrap;html=1;fillColor=#a0522d;fontColor=#ffffff;strokeColor=#6D1F00;opacity=40;align=right;verticalAlign=top;fontSize=20;" vertex="1" parent="WIyWlLk6GJQsqaUBKTNV-1">
          <mxGeometry x="903" y="605" width="610" height="295" as="geometry" />
        </mxCell>
        <mxCell id="naVW3j90ZXJTF1a_utHk-214" value="Service" style="rounded=0;whiteSpace=wrap;html=1;fillColor=#fad7ac;strokeColor=#b46504;opacity=40;align=right;verticalAlign=bottom;fontSize=20;" vertex="1" parent="WIyWlLk6GJQsqaUBKTNV-1">
          <mxGeometry x="203" y="250" width="730" height="320" as="geometry" />
        </mxCell>
        <mxCell id="naVW3j90ZXJTF1a_utHk-215" value="Registry" style="rounded=0;whiteSpace=wrap;html=1;fillColor=#6d8764;strokeColor=#3A5431;opacity=40;align=left;verticalAlign=bottom;fontSize=20;fontColor=#ffffff;" vertex="1" parent="WIyWlLk6GJQsqaUBKTNV-1">
          <mxGeometry x="-827" y="40" width="980" height="660" as="geometry" />
        </mxCell>
        <mxCell id="naVW3j90ZXJTF1a_utHk-216" value="Key" style="rounded=0;whiteSpace=wrap;html=1;fillColor=#647687;strokeColor=#314354;opacity=40;align=right;verticalAlign=top;fontSize=20;fontColor=#ffffff;" vertex="1" parent="WIyWlLk6GJQsqaUBKTNV-1">
          <mxGeometry x="413" y="40" width="310" height="160" as="geometry" />
        </mxCell>
        <mxCell id="naVW3j90ZXJTF1a_utHk-217" value="IRegistryVisitor" style="swimlane;fontStyle=0;align=center;verticalAlign=top;childLayout=stackLayout;horizontal=1;startSize=26;horizontalStack=0;resizeParent=1;resizeLast=0;collapsible=1;marginBottom=0;rounded=0;shadow=0;strokeWidth=1;" vertex="1" parent="WIyWlLk6GJQsqaUBKTNV-1">
          <mxGeometry x="-544.5" y="760" width="470" height="234" as="geometry">
            <mxRectangle x="550" y="140" width="160" height="26" as="alternateBounds" />
          </mxGeometry>
        </mxCell>
        <mxCell id="naVW3j90ZXJTF1a_utHk-222" value="OnStreamBegin()" style="text;align=left;verticalAlign=top;spacingLeft=4;spacingRight=4;overflow=hidden;rotatable=0;points=[[0,0.5],[1,0.5]];portConstraint=eastwest;" vertex="1" parent="naVW3j90ZXJTF1a_utHk-217">
          <mxGeometry y="26" width="470" height="26" as="geometry" />
        </mxCell>
        <mxCell id="naVW3j90ZXJTF1a_utHk-223" value="OnStreamEnd()" style="text;align=left;verticalAlign=top;spacingLeft=4;spacingRight=4;overflow=hidden;rotatable=0;points=[[0,0.5],[1,0.5]];portConstraint=eastwest;" vertex="1" parent="naVW3j90ZXJTF1a_utHk-217">
          <mxGeometry y="52" width="470" height="26" as="geometry" />
        </mxCell>
        <mxCell id="naVW3j90ZXJTF1a_utHk-228" value="OnMetricBegin(time: TInstant, aggrType: EAggregationType, metrType: EMetricType)" style="text;align=left;verticalAlign=top;spacingLeft=4;spacingRight=4;overflow=hidden;rotatable=0;points=[[0,0.5],[1,0.5]];portConstraint=eastwest;" vertex="1" parent="naVW3j90ZXJTF1a_utHk-217">
          <mxGeometry y="78" width="470" height="26" as="geometry" />
        </mxCell>
        <mxCell id="naVW3j90ZXJTF1a_utHk-227" value="OnMetricEnd()" style="text;align=left;verticalAlign=top;spacingLeft=4;spacingRight=4;overflow=hidden;rotatable=0;points=[[0,0.5],[1,0.5]];portConstraint=eastwest;" vertex="1" parent="naVW3j90ZXJTF1a_utHk-217">
          <mxGeometry y="104" width="470" height="26" as="geometry" />
        </mxCell>
        <mxCell id="naVW3j90ZXJTF1a_utHk-226" value="OnLabelsBegin()" style="text;align=left;verticalAlign=top;spacingLeft=4;spacingRight=4;overflow=hidden;rotatable=0;points=[[0,0.5],[1,0.5]];portConstraint=eastwest;" vertex="1" parent="naVW3j90ZXJTF1a_utHk-217">
          <mxGeometry y="130" width="470" height="26" as="geometry" />
        </mxCell>
        <mxCell id="naVW3j90ZXJTF1a_utHk-225" value="OnLabelsEnd()" style="text;align=left;verticalAlign=top;spacingLeft=4;spacingRight=4;overflow=hidden;rotatable=0;points=[[0,0.5],[1,0.5]];portConstraint=eastwest;" vertex="1" parent="naVW3j90ZXJTF1a_utHk-217">
          <mxGeometry y="156" width="470" height="26" as="geometry" />
        </mxCell>
        <mxCell id="naVW3j90ZXJTF1a_utHk-224" value="OnValue(value: i64)" style="text;align=left;verticalAlign=top;spacingLeft=4;spacingRight=4;overflow=hidden;rotatable=0;points=[[0,0.5],[1,0.5]];portConstraint=eastwest;" vertex="1" parent="naVW3j90ZXJTF1a_utHk-217">
          <mxGeometry y="182" width="470" height="26" as="geometry" />
        </mxCell>
        <mxCell id="naVW3j90ZXJTF1a_utHk-229" value="OnLabel(name: TStringBuf, value: TStringBuf)" style="text;align=left;verticalAlign=top;spacingLeft=4;spacingRight=4;overflow=hidden;rotatable=0;points=[[0,0.5],[1,0.5]];portConstraint=eastwest;" vertex="1" parent="naVW3j90ZXJTF1a_utHk-217">
          <mxGeometry y="208" width="470" height="26" as="geometry" />
        </mxCell>
        <mxCell id="naVW3j90ZXJTF1a_utHk-230" value="TRegistryVisitor" style="swimlane;fontStyle=0;align=center;verticalAlign=top;childLayout=stackLayout;horizontal=1;startSize=26;horizontalStack=0;resizeParent=1;resizeLast=0;collapsible=1;marginBottom=0;rounded=0;shadow=0;strokeWidth=1;" vertex="1" parent="WIyWlLk6GJQsqaUBKTNV-1">
          <mxGeometry x="-419.5" y="1043" width="220" height="91" as="geometry">
            <mxRectangle x="550" y="140" width="160" height="26" as="alternateBounds" />
          </mxGeometry>
        </mxCell>
        <mxCell id="naVW3j90ZXJTF1a_utHk-233" value="Out: IOutputStream&amp;" style="text;align=left;verticalAlign=top;spacingLeft=4;spacingRight=4;overflow=hidden;rotatable=0;points=[[0,0.5],[1,0.5]];portConstraint=eastwest;rounded=0;shadow=0;html=0;" vertex="1" parent="naVW3j90ZXJTF1a_utHk-230">
          <mxGeometry y="26" width="220" height="26" as="geometry" />
        </mxCell>
        <mxCell id="naVW3j90ZXJTF1a_utHk-234" value="" style="line;html=1;strokeWidth=1;align=left;verticalAlign=middle;spacingTop=-1;spacingLeft=3;spacingRight=3;rotatable=0;labelPosition=right;points=[];portConstraint=eastwest;" vertex="1" parent="naVW3j90ZXJTF1a_utHk-230">
          <mxGeometry y="52" width="220" height="8" as="geometry" />
        </mxCell>
        <mxCell id="naVW3j90ZXJTF1a_utHk-235" value="TRegistryVisitor(out: IOutputStream&amp;)" style="text;align=left;verticalAlign=top;spacingLeft=4;spacingRight=4;overflow=hidden;rotatable=0;points=[[0,0.5],[1,0.5]];portConstraint=eastwest;" vertex="1" parent="naVW3j90ZXJTF1a_utHk-230">
          <mxGeometry y="60" width="220" height="26" as="geometry" />
        </mxCell>
        <mxCell id="naVW3j90ZXJTF1a_utHk-237" value="" style="endArrow=block;endSize=10;endFill=0;shadow=0;strokeWidth=1;rounded=0;edgeStyle=elbowEdgeStyle;elbow=vertical;" edge="1" parent="WIyWlLk6GJQsqaUBKTNV-1" source="naVW3j90ZXJTF1a_utHk-230" target="naVW3j90ZXJTF1a_utHk-217">
          <mxGeometry width="160" relative="1" as="geometry">
            <mxPoint x="-211.5" y="609" as="sourcePoint" />
            <mxPoint x="-211.5" y="519" as="targetPoint" />
          </mxGeometry>
        </mxCell>
        <mxCell id="naVW3j90ZXJTF1a_utHk-238" value="Visitor" style="rounded=0;whiteSpace=wrap;html=1;fillColor=#0050ef;strokeColor=#001DBC;opacity=40;align=left;verticalAlign=bottom;fontSize=20;fontColor=#ffffff;" vertex="1" parent="WIyWlLk6GJQsqaUBKTNV-1">
          <mxGeometry x="-560" y="740" width="520" height="410" as="geometry" />
        </mxCell>
      </root>
    </mxGraphModel>
  </diagram>
</mxfile>
